<svg width="32" height="32" viewBox="0 0 32 32" fill="none" xmlns="http://www.w3.org/2000/svg">
<g clip-path="url(#clip0_1_76)">
<path fill-rule="evenodd" clip-rule="evenodd" d="M25.0666 32H6.93329C6.02228 32.0018 5.11987 31.8237 4.27786 31.4759C3.43585 31.1281 2.6708 30.6175 2.02662 29.9733C1.38244 29.3291 0.871801 28.5641 0.524014 27.722C0.176226 26.88 -0.00186768 25.9776 -4.72186e-05 25.0666V6.93329C-0.00186768 6.02228 0.176226 5.11987 0.524014 4.27786C0.871801 3.43585 1.38244 2.6708 2.02662 2.02662C2.6708 1.38244 3.43585 0.871801 4.27786 0.524014C5.11987 0.176226 6.02228 -0.00186768 6.93329 -4.72186e-05H25.0666C25.9776 -0.00186768 26.88 0.176226 27.722 0.524014C28.5641 0.871801 29.3291 1.38244 29.9733 2.02662C30.6175 2.6708 31.1281 3.43585 31.4759 4.27786C31.8237 5.11987 32.0018 6.02228 32 6.93329V25.0666C32.0018 25.9776 31.8237 26.88 31.4759 27.722C31.1281 28.5641 30.6175 29.3291 29.9733 29.9733C29.3291 30.6175 28.5641 31.1281 27.722 31.4759C26.88 31.8237 25.9776 32.0018 25.0666 32Z" fill="white"/>
<path d="M11.2963 6.83582C11.3365 7.18062 11.6754 7.4017 12.1638 7.4017C12.6149 7.4017 12.9338 7.17462 12.9338 6.85301C12.9338 6.58009 12.7269 6.42202 12.2184 6.31004L11.6783 6.19233C10.9228 6.03139 10.5522 5.64363 10.5522 5.01446C10.5522 4.24181 11.1814 3.73035 12.1379 3.73035C13.0515 3.73035 13.6978 4.23894 13.7237 4.97123H12.9078C12.8676 4.63243 12.5632 4.41108 12.1438 4.41108C11.7099 4.41108 11.4227 4.62097 11.4227 4.94545C11.4227 5.20691 11.6209 5.35925 12.1064 5.4655L12.6063 5.57175C13.4394 5.74989 13.7985 6.10899 13.7985 6.74962C13.7985 7.57697 13.1579 8.08816 12.1179 8.08816C11.1297 8.08816 10.4891 7.60275 10.4575 6.83582H11.2963ZM16.9657 6.97644H15.5091L15.1903 7.98191H14.3198L15.7591 3.8366H16.7789L18.2183 7.98191H17.2787L16.9657 6.97644ZM15.6959 6.32722H16.7818L16.2675 4.67827H16.2159L15.6959 6.32722ZM19.4836 7.98191V4.55197H18.2399V3.8366H21.5951V4.55197H20.3513V7.98191H19.4836Z" fill="#FF3B30"/>
<path d="M9.8969 11.2981C12.5137 11.2981 14.3727 13.0965 14.3727 15.3192C14.3727 16.8952 13.6554 18.0874 11.0588 20.7647L7.15888 24.8366V24.877H14.7465V26.1095H5.23923V25.1395L10.392 19.7241C12.4834 17.5418 12.9986 16.6731 12.9986 15.39C12.9986 13.7835 11.7357 12.5106 9.8969 12.5106C7.96721 12.5106 6.52242 13.834 6.50224 15.6223H5.16852C5.1887 13.1267 7.19938 11.2981 9.8969 11.2981ZM16.5352 18.815C16.5352 14.2382 18.5255 11.2981 21.8193 11.2981C25.1229 11.2981 27.0933 14.228 27.0933 18.8048C27.0933 23.4119 25.1331 26.3418 21.8193 26.3418C18.5055 26.3418 16.5352 23.422 16.5352 18.815ZM25.7091 18.815C25.7091 14.9858 24.2643 12.5205 21.8193 12.5205C19.3844 12.5205 17.9295 15.0059 17.9295 18.8048C17.9295 22.6744 19.3539 25.1296 21.8193 25.1296C24.2844 25.1296 25.7091 22.6744 25.7091 18.815Z" fill="black"/>
</g>
<defs>
<clipPath id="clip0_1_76">
<rect width="32" height="32" fill="white"/>
</clipPath>
</defs>
</svg>
