<svg width="32" height="32" viewBox="0 0 32 32" fill="none" xmlns="http://www.w3.org/2000/svg">
<path d="M24.4211 7.57888L16.8422 6.7368L7.57904 7.57888L6.7368 16L7.57888 24.4211L16 25.4738L24.4211 24.4211L25.2632 15.7896L24.4211 7.57888Z" fill="white"/>
<path d="M11.0338 20.6442C10.4043 20.2189 9.96848 19.5979 9.73056 18.7768L11.1917 18.1747C11.3243 18.68 11.5558 19.0715 11.8864 19.3494C12.2149 19.6274 12.6149 19.7642 13.0822 19.7642C13.5602 19.7642 13.9707 19.6189 14.3138 19.3283C14.6568 19.0378 14.8296 18.6672 14.8296 18.2189C14.8296 17.76 14.6485 17.3851 14.2864 17.0947C13.9243 16.8043 13.4696 16.6589 12.9264 16.6589H12.0822V15.2126H12.84C13.3074 15.2126 13.7011 15.0864 14.0211 14.8338C14.3411 14.5811 14.5011 14.2358 14.5011 13.7958C14.5011 13.4043 14.3579 13.0926 14.0717 12.859C13.7854 12.6254 13.4232 12.5075 12.9832 12.5075C12.5538 12.5075 12.2126 12.6213 11.96 12.8507C11.7074 13.0802 11.5242 13.3622 11.4085 13.6949L9.96224 13.0928C10.1538 12.5496 10.5054 12.0696 11.0211 11.6549C11.537 11.2402 12.1958 11.0317 12.9958 11.0317C13.5874 11.0317 14.12 11.1454 14.5917 11.3749C15.0632 11.6043 15.4338 11.9222 15.7011 12.3264C15.9685 12.7326 16.1011 13.1875 16.1011 13.6926C16.1011 14.2085 15.977 14.6442 15.7285 15.0021C15.48 15.36 15.1747 15.6336 14.8126 15.8253V15.9115C15.2906 16.1115 15.68 16.4168 15.9874 16.8274C16.2926 17.2379 16.4462 17.7285 16.4462 18.3011C16.4462 18.8738 16.301 19.3853 16.0104 19.8338C15.7198 20.2822 15.3178 20.6358 14.8083 20.8926C14.2968 21.1494 13.7221 21.28 13.0842 21.28C12.3453 21.2821 11.6632 21.0694 11.0338 20.6442Z" fill="#1A73E8"/>
<path d="M20 13.3938L18.4042 14.5538L17.6021 13.337L20.48 11.2611H21.5832V21.0526H20V13.3938Z" fill="#1A73E8"/>
<path d="M24.4211 32L32 24.4211L28.2106 22.737L24.4211 24.4211L22.737 28.2106L24.4211 32Z" fill="#EA4335"/>
<path d="M5.89472 28.2106L7.57888 32H24.421V24.4211H7.57888L5.89472 28.2106Z" fill="#34A853"/>
<path d="M2.52624 0C1.13056 0 0 1.13056 0 2.52624V24.421L3.78944 26.1051L7.57888 24.421L7.57904 7.57888H24.421L26.1051 3.78944L24.4211 0H2.52624Z" fill="#4285F4"/>
<path d="M0 24.4211V29.4738C0 30.8696 1.13056 32 2.52624 32H7.57888V24.4211H0Z" fill="#188038"/>
<path d="M24.4211 7.57888V24.421H32V7.57888L28.2106 5.89472L24.4211 7.57888Z" fill="#FBBC04"/>
<path d="M32 7.57888V2.52624C32 1.1304 30.8694 0 29.4738 0H24.4211V7.57888H32Z" fill="#1967D2"/>
</svg>
