<svg width="34" height="32" viewBox="0 0 34 32" fill="none" xmlns="http://www.w3.org/2000/svg">
<g clip-path="url(#clip0_1_81)">
<path d="M34 16.8C34.0018 16.531 33.8645 16.2807 33.6378 16.14H33.6339L33.6196 16.132L21.8383 9.07601C21.7874 9.04124 21.7346 9.00945 21.6801 8.98082C21.2252 8.74337 20.6849 8.74337 20.23 8.98082C20.1755 9.00947 20.1227 9.04124 20.0718 9.07601L8.29047 16.132L8.27625 16.14C7.91617 16.3666 7.80579 16.8456 8.0297 17.2099C8.09567 17.3172 8.18655 17.4066 8.29443 17.4704L20.0758 24.5264C20.1269 24.5609 20.1797 24.5927 20.234 24.6216C20.6888 24.8591 21.2292 24.8591 21.6841 24.6216C21.7384 24.5927 21.7912 24.5609 21.8423 24.5264L33.6236 17.4704C33.859 17.3316 34.0027 17.0757 34 16.8Z" fill="#0A2767"/>
<path d="M9.66389 12.0888H17.3953V19.2592H9.66389V12.0888ZM32.4186 4.8V1.51999C32.4372 0.699916 31.7956 0.0196509 30.9851 0H10.9219C10.1114 0.0196509 9.4698 0.699916 9.48837 1.51999V4.8L21.3488 7.99999L32.4186 4.8Z" fill="#0364B8"/>
<path d="M9.48834 4.79999H17.3953V12H9.48834V4.79999Z" fill="#0078D4"/>
<path d="M25.3023 4.79999H17.3953V12L25.3023 19.2H32.4186V12L25.3023 4.79999Z" fill="#28A8EA"/>
<path d="M17.3953 12H25.3023V19.2H17.3953V12Z" fill="#0078D4"/>
<path d="M17.3953 19.2H25.3023V26.4H17.3953V19.2Z" fill="#0364B8"/>
<path d="M9.66388 19.2592H17.3953V25.7775H9.66388V19.2592Z" fill="#14447D"/>
<path d="M25.3023 19.2H32.4186V26.4H25.3023V19.2Z" fill="#0078D4"/>
<path d="M33.6378 17.4264L33.6228 17.4344L21.8414 24.1384C21.79 24.1704 21.7379 24.2008 21.6833 24.228C21.4832 24.3244 21.2659 24.3788 21.0444 24.388L20.4008 24.0072C20.3464 23.9796 20.2936 23.9488 20.2426 23.9152L8.30312 17.0208H8.29758L7.90698 16.8V30.3712C7.91307 31.2766 8.64327 32.0057 9.53818 32H32.3941C32.4075 32 32.4194 31.9936 32.4336 31.9936C32.6226 31.9813 32.809 31.942 32.9871 31.8768C33.0641 31.8438 33.1383 31.8047 33.2093 31.76C33.2622 31.7296 33.3532 31.6632 33.3532 31.6632C33.7582 31.3599 33.998 30.881 34 30.3712V16.8C33.9997 17.0596 33.8613 17.2989 33.6378 17.4264Z" fill="url(#paint0_linear_1_81)"/>
<path opacity="0.5" d="M33.3674 16.7464V17.5784L21.0484 26.16L8.29441 17.0264C8.29441 17.022 8.29086 17.0184 8.2865 17.0184L7.11627 16.3064V15.7064L7.5986 15.6984L8.61859 16.2904L8.6423 16.2984L8.72928 16.3544C8.72928 16.3544 20.7162 23.2744 20.7479 23.2904L21.2065 23.5624C21.246 23.5463 21.2855 23.5304 21.333 23.5144C21.3567 23.4983 33.233 16.7384 33.233 16.7384L33.3674 16.7464Z" fill="#0A2767"/>
<path d="M33.6378 17.4264L33.6228 17.4352L21.8414 24.1392C21.79 24.1712 21.7378 24.2016 21.6833 24.2288C21.2257 24.4549 20.6907 24.4549 20.2331 24.2288C20.1789 24.2016 20.1262 24.1717 20.075 24.1392L8.29363 17.4352L8.2794 17.4264C8.05194 17.3016 7.90934 17.0618 7.90698 16.8V30.3712C7.91265 31.2765 8.64258 32.0057 9.53733 32C9.53733 32 9.53736 32 9.5374 32H32.3696C33.2643 32.0058 33.9943 31.2765 34 30.3713C34 30.3713 34 30.3712 34 30.3712V16.8C33.9997 17.0596 33.8613 17.2989 33.6378 17.4264Z" fill="#1490DF"/>
<path opacity="0.1" d="M22.013 24.04L21.8367 24.14C21.7856 24.1729 21.7328 24.2031 21.6785 24.2304C21.4843 24.3269 21.2731 24.3834 21.0571 24.3968L25.5395 29.76L33.3587 31.6664C33.573 31.5026 33.7434 31.2873 33.8545 31.04L22.013 24.04Z" fill="black"/>
<path opacity="0.05" d="M22.8116 23.5856L21.8367 24.14C21.7856 24.1729 21.7328 24.2031 21.6785 24.2304C21.4843 24.3268 21.2731 24.3834 21.0571 24.3968L23.1572 30.2552L33.3611 31.664C33.7631 31.3586 33.9997 30.8797 34 30.3711V30.1959L22.8116 23.5856Z" fill="black"/>
<path d="M9.55954 32H32.3672C32.7181 32.0018 33.0604 31.8896 33.3437 31.68L20.4 24.0088C20.3456 23.9812 20.2928 23.9505 20.2418 23.9168L8.30232 17.0224H8.29679L7.90698 16.8V30.3248C7.90609 31.2491 8.64596 31.9991 9.55954 32Z" fill="#28A8EA"/>
<path opacity="0.1" d="M18.9767 7.86642V24.9304C18.9753 25.5287 18.6158 26.0665 18.0674 26.2904C17.8976 26.3643 17.7146 26.4024 17.5298 26.4024H7.90698V7.20002H9.48838V6.40002H17.5298C18.3286 6.40309 18.975 7.05822 18.9767 7.86642Z" fill="black"/>
<path opacity="0.2" d="M18.1861 8.66641V25.7304C18.188 25.9236 18.1475 26.1149 18.0674 26.2904C17.8479 26.838 17.3232 27.1973 16.7391 27.2H7.90698V7.20002H16.7391C16.9685 7.19769 17.1946 7.25559 17.3953 7.36803C17.8801 7.61509 18.1859 8.1173 18.1861 8.66641Z" fill="black"/>
<path opacity="0.2" d="M18.1861 8.66641V24.1304C18.1822 24.9382 17.5375 25.593 16.7391 25.6H7.90698V7.20002H16.7391C16.9685 7.19769 17.1946 7.25559 17.3953 7.36803C17.8801 7.61509 18.1859 8.1173 18.1861 8.66641Z" fill="black"/>
<path opacity="0.2" d="M17.3953 8.66641V24.1304C17.3945 24.9395 16.748 25.596 15.9484 25.6H7.90698V7.20001H15.9484C16.7479 7.20044 17.3958 7.85663 17.3953 8.66562C17.3953 8.66588 17.3953 8.66614 17.3953 8.66641Z" fill="black"/>
<path d="M1.44934 7.20001H15.946C16.7464 7.20001 17.3953 7.85655 17.3953 8.66641V23.3336C17.3953 24.1435 16.7464 24.8 15.946 24.8H1.44934C0.648885 24.8 0 24.1434 0 23.3336V8.66641C0 7.85655 0.648904 7.20001 1.44934 7.20001Z" fill="url(#paint1_linear_1_81)"/>
<path d="M4.52992 13.3504C4.88714 12.5804 5.46372 11.936 6.18565 11.5C6.98514 11.0369 7.89543 10.806 8.8163 10.8328C9.66979 10.814 10.512 11.033 11.2509 11.4656C11.9456 11.8847 12.5051 12.4989 12.8615 13.2336C13.2497 14.0431 13.4431 14.934 13.4261 15.8336C13.4449 16.7737 13.2458 17.7052 12.8449 18.5536C12.48 19.3145 11.9027 19.9505 11.1844 20.3832C10.4171 20.829 9.54362 21.0537 8.65896 21.0328C7.78723 21.054 6.92649 20.8327 6.17063 20.3928C5.4699 19.973 4.90337 19.3582 4.53863 18.6215C4.14818 17.8237 3.95243 16.9429 3.96775 16.0528C3.95148 15.1206 4.14367 14.1968 4.52992 13.3504ZM6.29476 17.6944C6.48521 18.1812 6.80819 18.6034 7.2262 18.912C7.65196 19.213 8.16179 19.3684 8.68107 19.3552C9.23409 19.3773 9.7792 19.2167 10.234 18.8976C10.6467 18.5899 10.9612 18.1666 11.1386 17.68C11.3368 17.1365 11.4346 16.5608 11.4272 15.9816C11.4333 15.3968 11.3413 14.8152 11.1552 14.2616C10.9907 13.7617 10.6864 13.3209 10.2791 12.9928C9.83566 12.6586 9.29202 12.4891 8.73958 12.5128C8.20905 12.4989 7.6878 12.6554 7.25071 12.96C6.82562 13.2699 6.49652 13.6958 6.30187 14.188C5.87006 15.3161 5.86782 16.5663 6.29554 17.696L6.29476 17.6944Z" fill="white"/>
<path d="M25.3023 4.79999H32.4186V12H25.3023V4.79999Z" fill="#50D9FF"/>
</g>
<defs>
<linearGradient id="paint0_linear_1_81" x1="20.9535" y1="16.8" x2="20.9535" y2="32" gradientUnits="userSpaceOnUse">
<stop stop-color="#35B8F1"/>
<stop offset="1" stop-color="#28A8EA"/>
</linearGradient>
<linearGradient id="paint1_linear_1_81" x1="3.02192" y1="6.0542" x2="14.5737" y2="25.8288" gradientUnits="userSpaceOnUse">
<stop stop-color="#1784D9"/>
<stop offset="0.5" stop-color="#107AD5"/>
<stop offset="1" stop-color="#0A63C9"/>
</linearGradient>
<clipPath id="clip0_1_81">
<rect width="34" height="32" fill="white"/>
</clipPath>
</defs>
</svg>
